<?xml version="1.0" encoding="UTF-8"?> <svg xmlns="http://www.w3.org/2000/svg" width="384" height="64" viewBox="0 0 384 64" fill="none"><path d="M40.99 0H22.1529L0 63.8157H16.5306L20.0385 53.1477H40.1251L36.2807 41.3264H23.9309L31.4753 18.693L39.0198 41.3264H38.9718L42.8641 53.1477H42.9122L46.4201 63.8157H62.9987L40.99 0Z" fill="#9D174D"></path><path d="M87.5543 0.191895V25.6605H62.9987V0.191895H47.4773V11.9171L62.9987 56.1748V37.4337H87.5543V63.8153H103.076V0.191895H87.5543Z" fill="#0369A1"></path><path d="M156.848 52.0421V0.191895H141.327V0.239948C141.952 0.480218 142.528 0.72049 143.105 1.00881C147.478 3.17124 151.082 6.8714 153.244 11.2443C153.821 12.3976 154.253 13.599 154.59 14.8484C155.022 16.4341 155.214 18.068 155.214 19.7018C155.214 26.7657 151.226 33.4452 145.123 36.9532C144.306 37.4337 143.441 37.8662 142.528 38.2026C142.096 38.3467 141.711 38.4909 141.279 38.6351V63.8153H176.07V52.0421H156.848Z" fill="#4D7C0F"></path><path d="M136.281 14.128C137.674 15.5696 138.347 17.4437 138.347 19.7022C138.347 21.9607 137.674 23.7868 136.329 25.1804C134.983 26.5739 133.109 27.2467 130.755 27.2467H123.45V37.9147C127.151 37.9627 130.899 38.1069 134.599 37.7224C139.404 37.1939 144.21 35.7042 147.718 32.2443C150.553 29.4572 152.427 25.757 152.859 21.8166C153.436 16.819 151.61 11.9175 148.438 8.1212C146.757 6.10294 144.69 4.42105 142.432 3.07554C142.432 3.07554 142.384 3.07554 142.384 3.02748C139.26 1.20143 135.752 0.240353 132.148 0.0961914C131.716 0.0961914 131.235 0.0961914 130.755 0.0961914H105.622V63.8158H121.144V39.068V27.2947V12.1097V11.9655H130.755C133.061 11.9655 134.935 12.6863 136.281 14.128Z" fill="#D97706"></path><path d="M209.84 22.29C210.72 21.41 211.16 20.21 211.16 18.69C211.16 17.17 210.72 15.98 209.84 15.12C208.96 14.24 207.93 13.8 206.75 13.8C205.57 13.8 204.54 14.23 203.66 15.09C202.8 15.95 202.37 17.14 202.37 18.66C202.37 20.18 202.81 21.38 203.69 22.26C204.57 23.14 205.59 23.58 206.75 23.58C207.93 23.58 208.96 23.15 209.84 22.29ZM200.3 24.84C198.82 23.22 198.08 21.16 198.08 18.66C198.08 16.16 198.82 14.12 200.3 12.54C201.78 10.94 203.66 10.14 205.94 10.14C208.22 10.14 209.96 11.08 211.16 12.96V10.38H215.36V27H211.16V24.21C209.9 26.23 208.15 27.24 205.91 27.24C203.67 27.24 201.8 26.44 200.3 24.84ZM231.306 10.38H235.536V27H231.306V24.48C230.246 26.3 228.516 27.21 226.116 27.21C224.236 27.21 222.696 26.59 221.496 25.35C220.296 24.09 219.696 22.35 219.696 20.13V10.38H223.896V19.53C223.896 20.83 224.226 21.83 224.886 22.53C225.546 23.23 226.446 23.58 227.586 23.58C228.726 23.58 229.626 23.23 230.286 22.53C230.966 21.83 231.306 20.83 231.306 19.53V10.38ZM251.701 22.26C252.581 21.38 253.021 20.18 253.021 18.66C253.021 17.14 252.581 15.95 251.701 15.09C250.841 14.23 249.821 13.8 248.641 13.8C247.461 13.8 246.431 14.24 245.551 15.12C244.691 15.98 244.261 17.17 244.261 18.69C244.261 20.21 244.691 21.41 245.551 22.29C246.431 23.15 247.461 23.58 248.641 23.58C249.821 23.58 250.841 23.14 251.701 22.26ZM244.261 12.96C245.441 11.08 247.171 10.14 249.451 10.14C251.731 10.14 253.611 10.94 255.091 12.54C256.571 14.12 257.311 16.17 257.311 18.69C257.311 21.19 256.571 23.24 255.091 24.84C253.611 26.44 251.741 27.24 249.481 27.24C247.241 27.24 245.501 26.23 244.261 24.21V27H240.031V4.8H244.261V12.96ZM272.087 10.38H276.317V27H272.087V24.48C271.027 26.3 269.297 27.21 266.897 27.21C265.017 27.21 263.477 26.59 262.277 25.35C261.077 24.09 260.477 22.35 260.477 20.13V10.38H264.677V19.53C264.677 20.83 265.007 21.83 265.667 22.53C266.327 23.23 267.227 23.58 268.367 23.58C269.507 23.58 270.407 23.23 271.067 22.53C271.747 21.83 272.087 20.83 272.087 19.53V10.38ZM285.043 10.38V13.32C286.163 11.2 287.783 10.14 289.903 10.14V14.46H288.853C287.593 14.46 286.643 14.78 286.003 15.42C285.363 16.04 285.043 17.12 285.043 18.66V27H280.813V10.38H285.043ZM297.142 10.38V12.87C298.202 11.05 299.922 10.14 302.302 10.14C304.202 10.14 305.752 10.77 306.952 12.03C308.152 13.27 308.752 15 308.752 17.22V27H304.552V17.82C304.552 16.52 304.222 15.53 303.562 14.85C302.902 14.15 302.002 13.8 300.862 13.8C299.722 13.8 298.812 14.15 298.132 14.85C297.472 15.53 297.142 16.52 297.142 17.82V27H292.912V10.38H297.142ZM326.322 4.8V12.87C327.382 11.05 329.102 10.14 331.482 10.14C333.382 10.14 334.932 10.77 336.132 12.03C337.332 13.27 337.932 15 337.932 17.22V27H333.732V17.82C333.732 16.52 333.402 15.53 332.742 14.85C332.082 14.15 331.182 13.8 330.042 13.8C328.902 13.8 327.992 14.15 327.312 14.85C326.652 15.53 326.322 16.52 326.322 17.82V27H322.092V4.8H326.322ZM346.957 6.15C346.957 6.87 346.707 7.48 346.207 7.98C345.707 8.48 345.097 8.73 344.377 8.73C343.677 8.73 343.077 8.48 342.577 7.98C342.077 7.48 341.827 6.87 341.827 6.15C341.827 5.43 342.077 4.82 342.577 4.32C343.077 3.82 343.677 3.57 344.377 3.57C345.097 3.57 345.707 3.82 346.207 4.32C346.707 4.82 346.957 5.43 346.957 6.15ZM342.277 27V10.38H346.507V27H342.277ZM351.008 27V4.8H355.238V27H351.008ZM359.738 27V4.8H363.968V27H359.738ZM367.539 15.24C367.539 13.8 368.149 12.59 369.369 11.61C370.589 10.63 372.209 10.14 374.229 10.14C376.249 10.14 377.869 10.63 379.089 11.61C380.309 12.57 380.959 13.88 381.039 15.54H376.719C376.599 14.14 375.739 13.44 374.139 13.44C373.339 13.44 372.719 13.6 372.279 13.92C371.839 14.24 371.619 14.68 371.619 15.24C371.619 15.8 371.949 16.24 372.609 16.56C373.269 16.88 374.069 17.13 375.009 17.31C375.949 17.49 376.879 17.72 377.799 18C378.739 18.26 379.539 18.74 380.199 19.44C380.859 20.12 381.189 21.03 381.189 22.17C381.189 23.67 380.549 24.89 379.269 25.83C378.009 26.77 376.389 27.24 374.409 27.24C372.449 27.24 370.839 26.78 369.579 25.86C368.319 24.92 367.629 23.58 367.509 21.84H371.829C371.989 23.24 372.879 23.94 374.499 23.94C375.279 23.94 375.909 23.77 376.389 23.43C376.869 23.07 377.109 22.61 377.109 22.05C377.109 21.47 376.779 21.02 376.119 20.7C375.459 20.36 374.659 20.1 373.719 19.92C372.779 19.74 371.839 19.52 370.899 19.26C369.979 19 369.189 18.54 368.529 17.88C367.869 17.2 367.539 16.32 367.539 15.24Z" fill="#020617"></path><path d="M206.126 51.206C207.461 51.206 208.596 50.712 209.532 49.724C210.485 48.7187 210.962 47.41 210.962 45.798C210.962 44.1687 210.485 42.886 209.532 41.95C208.596 41.014 207.461 40.546 206.126 40.546C204.809 40.546 203.673 41.0313 202.72 42.002C201.784 42.9727 201.316 44.264 201.316 45.876C201.316 47.4707 201.784 48.762 202.72 49.75C203.673 50.7207 204.809 51.206 206.126 51.206ZM206.594 38.492C208.553 38.492 210.173 39.168 211.456 40.52C212.756 41.8547 213.406 43.614 213.406 45.798C213.406 47.9647 212.756 49.75 211.456 51.154C210.156 52.5407 208.535 53.234 206.594 53.234C205.381 53.234 204.315 52.948 203.396 52.376C202.495 51.7867 201.801 51.024 201.316 50.088V59.76H198.95V38.726H201.316V41.586C201.801 40.6673 202.495 39.922 203.396 39.35C204.315 38.778 205.381 38.492 206.594 38.492ZM227.21 38.726H229.576V53H227.21V50.712C226.257 52.3933 224.705 53.234 222.556 53.234C220.979 53.234 219.661 52.714 218.604 51.674C217.547 50.6167 217.018 49.126 217.018 47.202V38.726H219.358V46.812C219.358 48.2333 219.705 49.3253 220.398 50.088C221.109 50.8333 222.071 51.206 223.284 51.206C224.497 51.206 225.451 50.8333 226.144 50.088C226.855 49.3253 227.21 48.2333 227.21 46.812V38.726ZM241.43 51.206C242.765 51.206 243.9 50.712 244.836 49.724C245.789 48.7187 246.266 47.41 246.266 45.798C246.266 44.1687 245.789 42.886 244.836 41.95C243.9 41.014 242.765 40.546 241.43 40.546C240.113 40.546 238.977 41.0313 238.024 42.002C237.088 42.9727 236.62 44.264 236.62 45.876C236.62 47.4707 237.088 48.762 238.024 49.75C238.977 50.7207 240.113 51.206 241.43 51.206ZM241.898 38.492C243.857 38.492 245.477 39.168 246.76 40.52C248.06 41.8547 248.71 43.614 248.71 45.798C248.71 47.9647 248.06 49.75 246.76 51.154C245.46 52.5407 243.839 53.234 241.898 53.234C240.685 53.234 239.619 52.948 238.7 52.376C237.799 51.7867 237.105 51.024 236.62 50.088V53H234.254V33.76H236.62V41.586C237.105 40.6673 237.799 39.922 238.7 39.35C239.619 38.778 240.685 38.492 241.898 38.492ZM252.452 53V33.76H254.818V53H252.452ZM261.844 35.97C261.532 36.282 261.15 36.438 260.7 36.438C260.249 36.438 259.868 36.282 259.556 35.97C259.261 35.658 259.114 35.2767 259.114 34.826C259.114 34.3753 259.27 33.994 259.582 33.682C259.894 33.37 260.266 33.214 260.7 33.214C261.15 33.214 261.532 33.37 261.844 33.682C262.156 33.994 262.312 34.3753 262.312 34.826C262.312 35.2767 262.156 35.658 261.844 35.97ZM259.504 53V38.726H261.87V53H259.504ZM272.535 53.234C270.49 53.234 268.826 52.558 267.543 51.206C266.26 49.854 265.619 48.0773 265.619 45.876C265.619 43.6573 266.26 41.872 267.543 40.52C268.826 39.168 270.49 38.492 272.535 38.492C274.251 38.492 275.646 38.8907 276.721 39.688C277.813 40.4853 278.576 41.6207 279.009 43.094H276.461C276.184 42.262 275.707 41.612 275.031 41.144C274.355 40.676 273.523 40.442 272.535 40.442C271.183 40.442 270.091 40.9187 269.259 41.872C268.444 42.808 268.037 44.1427 268.037 45.876C268.037 47.592 268.444 48.9267 269.259 49.88C270.091 50.816 271.183 51.284 272.535 51.284C274.563 51.284 275.872 50.4 276.461 48.632H279.009C278.576 50.036 277.804 51.154 276.695 51.986C275.603 52.818 274.216 53.234 272.535 53.234ZM291.5 53V33.76H293.866V53H291.5ZM300.891 35.97C300.579 36.282 300.198 36.438 299.747 36.438C299.297 36.438 298.915 36.282 298.603 35.97C298.309 35.658 298.161 35.2767 298.161 34.826C298.161 34.3753 298.317 33.994 298.629 33.682C298.941 33.37 299.314 33.214 299.747 33.214C300.198 33.214 300.579 33.37 300.891 33.682C301.203 33.994 301.359 34.3753 301.359 34.826C301.359 35.2767 301.203 35.658 300.891 35.97ZM298.551 53V38.726H300.917V53H298.551ZM312.779 51.206C314.113 51.206 315.249 50.712 316.185 49.724C317.138 48.7187 317.615 47.41 317.615 45.798C317.615 44.1687 317.138 42.886 316.185 41.95C315.249 41.014 314.113 40.546 312.779 40.546C311.461 40.546 310.326 41.0313 309.373 42.002C308.437 42.9727 307.969 44.264 307.969 45.876C307.969 47.4707 308.437 48.762 309.373 49.75C310.326 50.7207 311.461 51.206 312.779 51.206ZM313.247 38.492C315.205 38.492 316.826 39.168 318.109 40.52C319.409 41.8547 320.059 43.614 320.059 45.798C320.059 47.9647 319.409 49.75 318.109 51.154C316.809 52.5407 315.188 53.234 313.247 53.234C312.033 53.234 310.967 52.948 310.049 52.376C309.147 51.7867 308.454 51.024 307.969 50.088V53H305.603V33.76H307.969V41.586C308.454 40.6673 309.147 39.922 310.049 39.35C310.967 38.778 312.033 38.492 313.247 38.492ZM326.167 38.726V41.144C327.016 39.376 328.463 38.492 330.509 38.492V40.962H329.885C328.671 40.962 327.744 41.2827 327.103 41.924C326.479 42.548 326.167 43.64 326.167 45.2V53H323.801V38.726H326.167ZM343.851 49.75C344.804 48.7793 345.281 47.488 345.281 45.876C345.281 44.264 344.804 42.9727 343.851 42.002C342.915 41.0313 341.78 40.546 340.445 40.546C339.128 40.546 337.992 41.014 337.039 41.95C336.103 42.886 335.635 44.16 335.635 45.772C335.635 47.384 336.112 48.6927 337.065 49.698C338.018 50.7033 339.154 51.206 340.471 51.206C341.788 51.206 342.915 50.7207 343.851 49.75ZM340.029 53.234C338.088 53.234 336.467 52.5407 335.167 51.154C333.867 49.75 333.217 47.9647 333.217 45.798C333.217 43.614 333.858 41.8547 335.141 40.52C336.441 39.168 338.07 38.492 340.029 38.492C341.242 38.492 342.3 38.778 343.201 39.35C344.12 39.922 344.813 40.6673 345.281 41.586V38.726H347.673V53H345.281V50.088C344.813 51.024 344.12 51.7867 343.201 52.376C342.3 52.948 341.242 53.234 340.029 53.234ZM354.717 38.726V41.144C355.566 39.376 357.014 38.492 359.059 38.492V40.962H358.435C357.222 40.962 356.294 41.2827 355.653 41.924C355.029 42.548 354.717 43.64 354.717 45.2V53H352.351V38.726H354.717ZM366.707 52.766L361.065 38.726H363.665L368.033 50.27L372.479 38.726H374.923L366.317 59.682H363.873L366.707 52.766Z" fill="#1E293B"></path></svg> 